<?xml version="1.0" encoding="UTF-8"?>
<svg width="384px" height="512px" viewBox="0 0 384 512" version="1.1" xmlns="http://www.w3.org/2000/svg" xmlns:xlink="http://www.w3.org/1999/xlink">
    <g id="Page-1" stroke="none" stroke-width="1" fill="none" fill-rule="evenodd">
        <g id="file">
            <path d="M224,136 L224,0 L24,0 C10.7,0 0,10.7 0,24 L0,488 C0,501.3 10.7,512 24,512 L360,512 C373.3,512 384,501.3 384,488 L384,160 L248,160 C234.8,160 224,149.2 224,136 Z M384,121.9 L384,128 L256,128 L256,0 L262.1,0 C268.5,0 274.6,2.5 279.1,7 L377,105 C381.5,109.5 384,115.6 384,121.9 Z" id="Shape" fill="currentColor" fill-rule="nonzero"></path>
            <path d="M304.635752,395.342969 C312.627468,390.730281 314.656838,378.210781 321.145105,371.737734 C327.633372,365.264688 340.181167,363.251484 344.805843,355.272812 C349.367638,347.408203 344.900624,335.574219 347.305684,326.591797 C349.624883,317.894531 359,309.910156 359,300.5 C359,291.089844 349.127544,283.094063 346.800914,274.419609 C344.395968,265.437187 348.865727,253.603203 344.305647,245.738594 C339.683256,237.765625 327.138892,235.746719 320.650625,229.273672 C314.162357,222.800625 312.138704,210.282266 304.146988,205.668438 C296.263886,201.117914 284.402076,205.575077 275.398533,203.17332 C267.192447,200.849297 259.189298,191 249.757015,191 C240.324733,191 232.321584,200.849297 223.63245,203.170469 C214.600325,205.565781 202.767097,201.111641 194.866846,205.657031 C186.87513,210.270859 184.851477,222.789219 178.363209,229.256563 C171.880659,235.729609 159.327148,237.748516 154.702471,245.721484 C150.140676,253.563281 154.611006,265.425781 152.204345,274.379687 C149.871999,283.105469 140,291.089844 140,300.5 C140,309.910156 149.872456,317.905937 152.199086,326.580391 C154.604032,335.562812 150.132558,347.396797 154.692067,355.261406 C159.321431,363.234375 171.863509,365.230469 178.34606,371.732031 C184.834327,378.205078 186.85798,390.723437 194.855413,395.342969 C202.738515,399.893492 214.594608,395.433192 223.598151,397.834664 C232.321584,400.133594 240.324733,410 249.757015,410 C259.189298,410 267.20388,400.150703 275.904447,397.829531 C284.913706,395.457031 296.746933,399.905469 304.635752,395.342969 Z M204,300.5 C204,275.321438 224.366938,255 249.5,255 C274.633062,255 295,275.321438 295,300.5 C295,325.621688 274.633062,346 249.5,346 C224.366938,346 204,325.63875 204,300.5 Z M140.966366,438.443517 C139.120097,443.07332 139.95461,448.327367 143.167686,452.155379 C146.380762,455.972083 151.421927,457.75208 156.301758,456.762565 L181.973414,451.653836 L194.147426,475.554883 C196.491335,480.172812 201.115528,483 206.28508,483 C206.480387,483 206.662344,482.993384 206.857708,482.984564 C212.254493,482.772524 216.884367,479.545572 218.923784,474.570852 L238,428.159734 C207.488279,425.536669 180.055567,412.259629 159.490974,392 L140.966366,438.443517 Z M339.483549,392 C318.954024,412.263066 291.524535,425.541794 261,428.165869 L280.070026,474.584861 C282.111052,479.55986 286.737152,482.785097 292.132186,483 C292.347988,482.485364 292.064039,482.994345 292.745517,482.994345 C297.909984,482.994345 302.530405,480.181946 304.870146,475.563234 L317.040207,451.652477 L342.703533,456.762072 C347.584051,457.751756 352.624716,455.971456 355.833342,452.154105 C359.045375,448.327705 359.879618,443.071636 358.033948,438.439917 L339.483549,392 Z" id="Shape" fill="#FFFFFF" fill-rule="nonzero"></path>
            <rect id="Rectangle" fill="#FFFFFF" x="32" y="42" width="138" height="37" rx="8"></rect>
            <rect id="Rectangle" fill="#FFFFFF" x="32" y="123" width="138" height="37" rx="8"></rect>
            <rect id="Rectangle" fill="#FFFFFF" x="32" y="238" width="69" height="37" rx="8"></rect>
            <rect id="Rectangle" fill="#FFFFFF" x="32" y="300" width="69" height="37" rx="8"></rect>
        </g>
    </g>
</svg>
