<svg xmlns="http://www.w3.org/2000/svg" width="15" height="19" viewBox="0 0 15 19"><g fill="none" fill-rule="evenodd" transform="translate(1 1)"><line x1=".5" x2=".5" y1=".5" y2="16.5" stroke="currentColor" stroke-linecap="square" stroke-width="2"/><path fill="currentColor" fill-rule="nonzero" d="M14,8.5 L14,5 L10,5 L10,8.5 L13,8.5 C13,9.94974747 11.6568543,11.125 10,11.125 L10,12 C12.209139,12 14,10.4329966 14,8.5 L14,8.5 Z M13,6 L13,8 L11,8 L11,6 L13,6 L13,6 Z M9,8.5 L9,5 L5,5 L5,8.5 L8,8.5 C8,9.94974747 6.65685425,11.125 5,11.125 L5,12 C7.209139,12 9,10.4329966 9,8.5 L9,8.5 Z M8,6 L8,8 L6,8 L6,6 L8,6 L8,6 Z"/></g></svg>
