<svg xmlns="http://www.w3.org/2000/svg" width="36" height="36" viewBox="0 0 36 36"><g fill="none"><rect width="36" height="36" fill="currentColor"/><path fill="#FFF" d="M10.3032227,23.1523438 C10.6967773,23.1523438 11.0670573,23.0782878 11.4140625,22.9301758 C11.7610677,22.7820638 12.0869141,22.5598958 12.3916016,22.2636719 C12.4042969,22.297526 12.4254557,22.3673503 12.4550781,22.4731445 C12.5227865,22.7058919 12.5799154,22.8815104 12.6264648,23 L12.6264648,23 L14.3911133,23 C14.2345378,22.6783854 14.1276855,22.3768717 14.0705566,22.095459 C14.0134277,21.8140462 13.9848633,21.3771159 13.9848633,20.784668 L13.9848633,20.784668 L14.0039062,18.7026367 C14.0039062,17.9282227 13.9245605,17.3960775 13.7658691,17.1062012 C13.6071777,16.8163249 13.3331706,16.5772298 12.9438477,16.388916 C12.5545247,16.2006022 11.9620768,16.1064453 11.1665039,16.1064453 C10.2905273,16.1064453 9.63037109,16.2630208 9.18603516,16.5761719 C8.74169922,16.8893229 8.42854818,17.3717448 8.24658203,18.0234375 L8.24658203,18.0234375 L9.86523438,18.3154297 C9.97526042,18.0022786 10.1191406,17.7832845 10.296875,17.6584473 C10.4746094,17.53361 10.722168,17.4711914 11.0395508,17.4711914 C11.5092773,17.4711914 11.828776,17.5441895 11.9980469,17.6901855 C12.1673177,17.8361816 12.2519531,18.0805664 12.2519531,18.4233398 L12.2519531,18.4233398 L12.2519531,18.6010742 C11.9303385,18.7364909 11.3527018,18.882487 10.519043,19.0390625 C9.90120443,19.1575521 9.42830404,19.2961426 9.1003418,19.454834 C8.77237956,19.6135254 8.51741536,19.842041 8.33544922,20.1403809 C8.15348307,20.4387207 8.0625,20.7783203 8.0625,21.1591797 C8.0625,21.7347005 8.26245117,22.2107747 8.66235352,22.5874023 C9.06225586,22.9640299 9.60921224,23.1523438 10.3032227,23.1523438 Z M10.8364258,21.8955078 C10.5486654,21.8955078 10.3116862,21.8045247 10.1254883,21.6225586 C9.93929036,21.4405924 9.84619141,21.2247721 9.84619141,20.9750977 C9.84619141,20.7211914 9.9625651,20.5117188 10.1953125,20.3466797 C10.3476562,20.2451172 10.6713867,20.1414388 11.1665039,20.0356445 C11.6616211,19.9298503 12.0234375,19.8388672 12.2519531,19.7626953 L12.2519531,19.7626953 L12.2519531,20.1181641 C12.2519531,20.5455729 12.2286784,20.8354492 12.1821289,20.987793 C12.1144206,21.2205404 11.9726562,21.4173177 11.7568359,21.578125 C11.4648438,21.7897135 11.1580404,21.8955078 10.8364258,21.8955078 Z M19.4501953,23.1523438 C20.2330729,23.1523438 20.8985189,22.8413086 21.4465332,22.2192383 C21.9945475,21.597168 22.2685547,20.710612 22.2685547,19.5595703 C22.2685547,18.4466146 21.9998372,17.5928548 21.4624023,16.998291 C20.9249674,16.4037272 20.2457682,16.1064453 19.4248047,16.1064453 C18.6715495,16.1064453 18.0198568,16.4195964 17.4697266,17.0458984 L17.4697266,17.0458984 L17.4697266,13.6943359 L15.6860352,13.6943359 L15.6860352,23 L17.3427734,23 L17.3427734,22.0097656 C17.6136068,22.3863932 17.9362793,22.6709798 18.310791,22.8635254 C18.6853027,23.056071 19.0651042,23.1523438 19.4501953,23.1523438 Z M19.0185547,21.7431641 C18.5065104,21.7431641 18.0960286,21.5061849 17.7871094,21.0322266 C17.5670573,20.6979167 17.4570312,20.1816406 17.4570312,19.4833984 C17.4570312,18.8063151 17.5987956,18.3016764 17.8823242,17.9694824 C18.1658529,17.6372884 18.5213216,17.4711914 18.9487305,17.4711914 C19.3846029,17.4711914 19.7421875,17.6415202 20.0214844,17.9821777 C20.3007812,18.3228353 20.4404297,18.8782552 20.4404297,19.6484375 C20.4404297,20.3720703 20.3018392,20.9020996 20.0246582,21.2385254 C19.7474772,21.5749512 19.4121094,21.7431641 19.0185547,21.7431641 Z M26.546875,23.1523438 C27.414388,23.1523438 28.1062826,22.9471029 28.6225586,22.5366211 C29.1388346,22.1261393 29.4879557,21.5188802 29.6699219,20.7148438 L29.6699219,20.7148438 L27.9179688,20.4165039 C27.8291016,20.8862305 27.6767578,21.2173665 27.4609375,21.4099121 C27.2451172,21.6024577 26.9679362,21.6987305 26.6293945,21.6987305 C26.1765951,21.6987305 25.8158366,21.5336914 25.5471191,21.2036133 C25.2784017,20.8735352 25.144043,20.3085938 25.144043,19.5087891 C25.144043,18.789388 25.2762858,18.2762858 25.5407715,17.9694824 C25.8052572,17.662679 26.159668,17.5092773 26.6040039,17.5092773 C26.9383138,17.5092773 27.2102051,17.5981445 27.4196777,17.7758789 C27.6291504,17.9536133 27.7635091,18.218099 27.8227539,18.5693359 L27.8227539,18.5693359 L29.5810547,18.2519531 C29.3694661,17.5283203 29.021403,16.9898275 28.5368652,16.6364746 C28.0523275,16.2831217 27.3995768,16.1064453 26.5786133,16.1064453 C25.5756836,16.1064453 24.7801107,16.4164225 24.1918945,17.036377 C23.6036784,17.6563314 23.3095703,18.5227865 23.3095703,19.6357422 C23.3095703,20.7360026 23.6026204,21.597168 24.1887207,22.2192383 C24.774821,22.8413086 25.5608724,23.1523438 26.546875,23.1523438 Z"/></g></svg>
