<svg xmlns="http://www.w3.org/2000/svg" width="24" height="24" viewBox="0 0 24 24"><g fill="none" fill-rule="evenodd"><rect width="24" height="24" fill="currentColor"/><path fill="#FFF" fill-rule="nonzero" d="M11,4.5 L11,0 L6.6,0 L6.6,4.5 L9.9,4.5 C9.9,6.36396103 8.42253968,7.875 6.6,7.875 L6.6,9 C9.0300529,9 11,6.98528138 11,4.5 L11,4.5 Z M9.9,1.125 L9.9,3.375 L7.7,3.375 L7.7,1.125 L9.9,1.125 L9.9,1.125 Z M4.4,4.5 L4.4,0 L0,0 L0,4.5 L3.3,4.5 C3.3,6.36396103 1.82253968,7.875 0,7.875 L0,9 C2.4300529,9 4.4,6.98528138 4.4,4.5 L4.4,4.5 Z M3.3,1.125 L3.3,3.375 L1.1,3.375 L1.1,1.125 L3.3,1.125 L3.3,1.125 Z" transform="translate(7 8)"/></g></svg>
