<svg xmlns="http://www.w3.org/2000/svg" xmlns:xlink="http://www.w3.org/1999/xlink" width="37" height="38" viewBox="0 0 37 38"><defs><path id="a" d="M9.91210938,22.1640625 C10.3359375,22.1640625 10.7347005,22.0843099 11.1083984,21.9248047 C11.4820964,21.7652995 11.8330078,21.5260417 12.1611328,21.2070312 C12.1748047,21.2434896 12.1975911,21.3186849 12.2294922,21.4326172 C12.3024089,21.6832682 12.3639323,21.8723958 12.4140625,22 L12.4140625,22 L14.3144531,22 C14.1458333,21.6536458 14.0307617,21.3289388 13.9692383,21.0258789 C13.9077148,20.722819 13.8769531,20.2522786 13.8769531,19.6142578 L13.8769531,19.6142578 L13.8974609,17.3720703 C13.8974609,16.5380859 13.8120117,15.9650065 13.6411133,15.652832 C13.4702148,15.3406576 13.1751302,15.0831706 12.7558594,14.8803711 C12.3365885,14.6775716 11.6985677,14.5761719 10.8417969,14.5761719 C9.8984375,14.5761719 9.1875,14.7447917 8.70898438,15.0820312 C8.23046875,15.4192708 7.89322917,15.9388021 7.69726562,16.640625 L7.69726562,16.640625 L9.44042969,16.9550781 C9.55891927,16.6178385 9.71386719,16.3819987 9.90527344,16.2475586 C10.0966797,16.1131185 10.3632812,16.0458984 10.7050781,16.0458984 C11.2109375,16.0458984 11.555013,16.1245117 11.7373047,16.2817383 C11.9195964,16.4389648 12.0107422,16.7021484 12.0107422,17.0712891 L12.0107422,17.0712891 L12.0107422,17.2626953 C11.664388,17.4085286 11.0423177,17.5657552 10.1445312,17.734375 C9.47916667,17.8619792 8.96988932,18.0112305 8.61669922,18.1821289 C8.26350911,18.3530273 7.98893229,18.5991211 7.79296875,18.9204102 C7.59700521,19.2416992 7.49902344,19.6074219 7.49902344,20.0175781 C7.49902344,20.6373698 7.71435547,21.1500651 8.14501953,21.5556641 C8.57568359,21.961263 9.16471354,22.1640625 9.91210938,22.1640625 Z M10.4863281,20.8105469 C10.1764323,20.8105469 9.92122396,20.7125651 9.72070312,20.5166016 C9.52018229,20.320638 9.41992188,20.0882161 9.41992188,19.8193359 C9.41992188,19.5458984 9.5452474,19.3203125 9.79589844,19.1425781 C9.95996094,19.0332031 10.3085938,18.9215495 10.8417969,18.8076172 C11.375,18.6936849 11.7646484,18.5957031 12.0107422,18.5136719 L12.0107422,18.5136719 L12.0107422,18.8964844 C12.0107422,19.3567708 11.9856771,19.6689453 11.9355469,19.8330078 C11.8626302,20.0836589 11.7099609,20.2955729 11.4775391,20.46875 C11.1630859,20.6966146 10.8326823,20.8105469 10.4863281,20.8105469 Z M19.7626953,22.1640625 C20.6057943,22.1640625 21.3224284,21.8291016 21.9125977,21.1591797 C22.5027669,20.4892578 22.7978516,19.5345052 22.7978516,18.2949219 C22.7978516,17.0963542 22.5084635,16.1769206 21.9296875,15.5366211 C21.3509115,14.8963216 20.6194661,14.5761719 19.7353516,14.5761719 C18.9241536,14.5761719 18.2223307,14.9134115 17.6298828,15.5878906 L17.6298828,15.5878906 L17.6298828,11.9785156 L15.7089844,11.9785156 L15.7089844,22 L17.4931641,22 L17.4931641,20.9335938 C17.7848307,21.3391927 18.1323242,21.6456706 18.5356445,21.8530273 C18.9389648,22.0603841 19.3479818,22.1640625 19.7626953,22.1640625 Z M19.2978516,20.6464844 C18.7464193,20.6464844 18.304362,20.391276 17.9716797,19.8808594 C17.7347005,19.5208333 17.6162109,18.9648438 17.6162109,18.2128906 C17.6162109,17.483724 17.7688802,16.9402669 18.0742188,16.5825195 C18.3795573,16.2247721 18.7623698,16.0458984 19.2226562,16.0458984 C19.6920573,16.0458984 20.0771484,16.2293294 20.3779297,16.5961914 C20.6787109,16.9630534 20.8291016,17.5611979 20.8291016,18.390625 C20.8291016,19.1699219 20.6798503,19.7407227 20.3813477,20.1030273 C20.0828451,20.465332 19.7216797,20.6464844 19.2978516,20.6464844 Z M27.4052734,22.1640625 C28.3395182,22.1640625 29.0846354,21.9430339 29.640625,21.5009766 C30.1966146,21.0589193 30.5725911,20.4049479 30.7685547,19.5390625 L30.7685547,19.5390625 L28.8818359,19.2177734 C28.7861328,19.7236328 28.6220703,20.0802409 28.3896484,20.2875977 C28.1572266,20.4949544 27.858724,20.5986328 27.4941406,20.5986328 C27.0065104,20.5986328 26.6180013,20.4208984 26.3286133,20.0654297 C26.0392253,19.7099609 25.8945312,19.1015625 25.8945312,18.2402344 C25.8945312,17.4654948 26.0369466,16.9129232 26.3217773,16.5825195 C26.6066081,16.2521159 26.9882812,16.0869141 27.4667969,16.0869141 C27.8268229,16.0869141 28.1196289,16.1826172 28.3452148,16.3740234 C28.5708008,16.5654297 28.7154948,16.8502604 28.7792969,17.2285156 L28.7792969,17.2285156 L30.6728516,16.8867188 C30.444987,16.1074219 30.0701497,15.5275065 29.5483398,15.1469727 C29.0265299,14.7664388 28.3235677,14.5761719 27.4394531,14.5761719 C26.359375,14.5761719 25.5026042,14.9099935 24.8691406,15.5776367 C24.2356771,16.2452799 23.9189453,17.1783854 23.9189453,18.3769531 C23.9189453,19.561849 24.2345378,20.4892578 24.8657227,21.1591797 C25.4969076,21.8291016 26.3434245,22.1640625 27.4052734,22.1640625 Z"/></defs><g fill="none" fill-rule="evenodd" transform="translate(0 1)"><rect width="36" height="36" x=".25" y=".25" stroke="currentColor" stroke-width=".5"/><g transform="translate(1 1)"><g fill="currentColor" fill-rule="nonzero"><use xlink:href="#a"/><use xlink:href="#a"/></g><line x1="1" x2="1" y2="34" stroke="currentColor" stroke-linecap="square" stroke-width="3"/></g></g></svg>
