<?xml version="1.0" encoding="UTF-8"?>
<svg width="555px" height="325px" viewBox="0 0 555 325" version="1.1" xmlns="http://www.w3.org/2000/svg" xmlns:xlink="http://www.w3.org/1999/xlink">
    <g id="Page-1" stroke="none" stroke-width="1" fill="none" fill-rule="evenodd">
        <g id="Group">
            <rect id="Rectangle" stroke="currentColor" stroke-width="12" x="2" y="2" width="551" height="321" rx="25"></rect>
            <rect id="Rectangle" fill="currentColor" x="299" y="27" width="237" height="12"></rect>
            <rect id="Rectangle" fill="currentColor" x="299" y="55" width="237" height="12"></rect>
            <rect id="Rectangle" fill="currentColor" x="299" y="83" width="180" height="12"></rect>
            <rect id="Rectangle" fill="currentColor" x="299" y="111" width="144" height="13"></rect>
            <rect id="Rectangle" fill="currentColor" x="299" y="139" width="119" height="13"></rect>
            <rect id="Rectangle" fill="currentColor" x="299" y="167" width="78" height="13"></rect>
            <rect id="Rectangle" fill="currentColor" x="299" y="195" width="180" height="12"></rect>
            <rect id="Rectangle" fill="currentColor" x="299" y="223" width="144" height="13"></rect>
            <rect id="Rectangle" fill="currentColor" x="299" y="251" width="119" height="13"></rect>
            <rect id="Rectangle" fill="currentColor" x="299" y="279" width="78" height="13"></rect>
            <path d="M184.376322,113.180804 C178.654036,104.452009 164.318153,104.487165 158.615981,113.149414 L121.823397,168.777902 L113.57687,157.427455 C107.844528,148.989955 94.3684961,149.391741 88.5858705,157.427455 L56.1428263,202.206473 C52.7250432,206.930469 52.2458395,213.114955 54.8621005,218.277902 C57.4753444,223.521205 62.7651898,226.785714 68.6483829,226.785714 L230.81332,226.785714 C236.55069,226.785714 241.775167,223.631194 244.460316,218.559152 C247.131387,213.53683 246.840747,207.464844 243.698015,202.708705 L184.376322,113.180804 Z M69.1763617,210.714286 L100.548363,166.829241 L115.588218,187.591518 C117.147013,189.720982 119.761765,191.227679 122.27595,190.926339 C124.915845,190.86356 127.364661,189.529632 128.822888,187.316295 L170.975715,122.076339 L229.681937,210.714286 L69.1763617,210.714286 Z M245.823005,50 L52.7335914,50 C35.4108563,50 21,64.3889509 21,82.1428571 L21,242.857143 C21,260.611049 35.4062804,275 52.7290156,275 L245.818429,275 C263.593717,275 278,260.611049 278,242.857143 L278,82.1428571 C278.004574,64.3889509 264.025705,50 245.823005,50 Z M262.366342,242.857143 C262.366342,251.716518 255.145603,258.928571 246.275558,258.928571 L53.1861447,258.928571 C44.3160998,258.928571 37.0953603,251.716518 37.0953603,242.857143 L37.0953603,82.1428571 C37.0953603,73.2834821 44.3160998,66.0714286 53.1861447,66.0714286 L246.275558,66.0714286 C255.145603,66.0714286 262.366342,73.2834821 262.366342,82.1428571 L262.366342,242.857143 Z M93.4131058,130.357143 C106.738287,130.357143 117.549282,119.559152 117.549282,106.25 C117.549282,92.9408482 106.738287,82.1428571 93.4131058,82.1428571 C80.0879249,82.1428571 69.2769291,92.9408482 69.2769291,106.25 C69.2769291,119.559152 80.0879249,130.357143 93.4131058,130.357143 Z M93.4131058,98.2142857 C97.8491339,98.2142857 101.005945,101.819308 101.005945,106.25 C101.005945,110.680692 97.8380715,114.285714 93.4131058,114.285714 C88.9881401,114.285714 85.3677136,110.669643 85.3677136,106.25 C85.3677136,101.830357 88.9881401,98.2142857 93.4131058,98.2142857 Z" id="Shape" fill="currentColor" fill-rule="nonzero"></path>
        </g>
    </g>
</svg>
