<?xml version="1.0" encoding="UTF-8"?>
<svg xmlns="http://www.w3.org/2000/svg" viewBox="0 0 281.5 56.3">
    <title>Entra con CIE</title>
    <g id="Livello_2" data-name="Livello 2">
        <g id="Livello_1-2" data-name="Livello 1">
            <rect width="281.5" height="56.3" fill="#0053a2" />
            <path
                d="M20,11.4l1.4-.6L39,4.8a1.2,1.2,0,0,1,1.3.2,2.8,2.8,0,0,1,.8,1.2c.5,1.3,1.1,2.6,1.6,4a9.2,9.2,0,0,1,.5,3.7,10.3,10.3,0,0,0-.1,1.7,2.9,2.9,0,0,0,0,1.3c0,.5.1,1.1.1,1.6a6.6,6.6,0,0,0,1.2,3c1.2,1.6,2.4,3.1,3.5,4.7a11.3,11.3,0,0,1,1.6,2.6,3,3,0,0,1,.4,1,3.6,3.6,0,0,1-.2,1,7.5,7.5,0,0,1-1.2,1.4l-1.7,1.1-1.3,1a1.6,1.6,0,0,0-.2,1.5,10.4,10.4,0,0,0,.4,1,1.7,1.7,0,0,1-.2,1.8l-.3.4a1.1,1.1,0,0,0-.2,1.1,4.3,4.3,0,0,1,.1.5c.1.4-.1.7-.4,1.1l-.6.8a2.2,2.2,0,0,0-.6,1.9,4.3,4.3,0,0,0,.2,1.1,5,5,0,0,1,.2,2.1,3.2,3.2,0,0,1-1.7,2.8,2.6,2.6,0,0,1-1.7.3l-2.2-.4-8.2-1.7-2.8-.7h-.1a19.8,19.8,0,0,0,9-12.8,19.3,19.3,0,0,0-3-15.3A19.5,19.5,0,0,0,20,11.4Z"
                fill="#fff" />
            <path
                d="M12.2,29.1c-2,0-3.4-.6-4.1-1.7S7,24.5,7,21.9a10.4,10.4,0,0,1,1.1-5.4c.7-1.1,2.1-1.6,4.1-1.6a18.9,18.9,0,0,1,3.9.5v1.8a21.9,21.9,0,0,0-3.6-.3c-1.2,0-2,.3-2.4,1.1s-.7,2-.7,4a8.9,8.9,0,0,0,.6,4,2.6,2.6,0,0,0,2.5,1.1,21.9,21.9,0,0,0,3.6-.3v1.9A28.7,28.7,0,0,1,12.2,29.1Z"
                fill="#fff" />
            <path d="M17.8,17.1V14.8H20v2.3Zm0,11.8V18.8H20V28.9Z" fill="#fff" />
            <path
                d="M29.4,27.1H30v1.6a20.8,20.8,0,0,1-4,.5,3.8,3.8,0,0,1-3.2-1.2,6.1,6.1,0,0,1-1-3.9c0-3.6,1.5-5.4,4.4-5.4s4.2,1.5,4.2,4.6l-.2,1.6H24a2.4,2.4,0,0,0,.6,1.8,2.4,2.4,0,0,0,1.9.6Zm-1.2-4a3.7,3.7,0,0,0-.4-2.1,2.1,2.1,0,0,0-1.6-.6,2.2,2.2,0,0,0-1.7.6,3.8,3.8,0,0,0-.5,2.1Z"
                fill="#fff" />
            <path d="M15.6,45.3V31.5h2.2V45.3Z" fill="#fff" />
            <path
                d="M24.9,45.3H20.1V31.5h4.8c2.1,0,3.6.6,4.3,1.6a8.7,8.7,0,0,1,1.2,5.1,21.9,21.9,0,0,1-.2,2.9,9.3,9.3,0,0,1-.8,2.2C28.6,44.6,27.1,45.3,24.9,45.3Zm3.2-7.1a7.8,7.8,0,0,0-.6-3.6,2.9,2.9,0,0,0-2.6-1.1H22.4v9.8h2.5a2.6,2.6,0,0,0,2.6-1.4,4.9,4.9,0,0,0,.5-1.6C28,39.7,28.1,39,28.1,38.2Z"
                fill="#fff" />
            <line x1="56.7" y1="7.9" x2="56.7" y2="49.2" fill="none" stroke="#fff"
                stroke-miterlimit="10" />
            <path d="M89.6,36.5V19h11.1v2.5H92.5v4.9h6.7v2.5H92.5V34h8.2v2.5Z" fill="#fff" />
            <path
                d="M106.3,36.5h-2.8V23.7h2.8v.8a7.1,7.1,0,0,1,3.5-1.1c1.7,0,2.9.5,3.5,1.5a9.4,9.4,0,0,1,.9,4.8v6.8h-2.7V29.7a6.9,6.9,0,0,0-.5-2.9,1.8,1.8,0,0,0-1.8-.9,7,7,0,0,0-2.5.5l-.4.2Z"
                fill="#fff" />
            <path
                d="M124.4,26.1h-3.6v5.6a4.5,4.5,0,0,0,.3,2.1c.1.4.5.5,1.1.5h2.1l.2,2.2-2.6.3c-1.5,0-2.5-.3-3-1s-.8-1.9-.8-3.7v-6h-1.7V23.7h1.7V20h2.7v3.7h3.6Z"
                fill="#fff" />
            <path
                d="M126.7,36.5V23.7h2.7v1.6a12,12,0,0,1,4.4-1.9v2.8a17,17,0,0,0-3.8,1.2l-.6.2v8.9Z"
                fill="#fff" />
            <path
                d="M145.4,27.7v5.8c0,.4.1.7.3.8a1.5,1.5,0,0,0,.8.4v2.1a5.7,5.7,0,0,1-3.4-.9,9.8,9.8,0,0,1-4.1.9c-2.5,0-3.8-1.3-3.8-4.1a3.4,3.4,0,0,1,1-2.8,5.5,5.5,0,0,1,3.2-1l3.3-.3v-.9a2.1,2.1,0,0,0-.4-1.5,2.5,2.5,0,0,0-1.3-.4l-4.1.2h-.9v-2a25.8,25.8,0,0,1,5.2-.7,4.8,4.8,0,0,1,3.4,1.1A4.5,4.5,0,0,1,145.4,27.7Zm-5.8,3.1a1.8,1.8,0,0,0-1.7,2c0,1.2.5,1.7,1.5,1.7a9.5,9.5,0,0,0,2.8-.4h.4V30.6Z"
                fill="#fff" />
            <path
                d="M159.3,23.4a21.4,21.4,0,0,1,3.2.4h.7v2.2l-3-.2c-1.3,0-2.2.3-2.6.9a5.4,5.4,0,0,0-.7,3.3,6.4,6.4,0,0,0,.6,3.3,3.4,3.4,0,0,0,2.7.9l3-.2v2.3a23.1,23.1,0,0,1-3.9.4c-2,0-3.3-.5-4.1-1.6s-1.2-2.7-1.2-5.1.4-4.1,1.2-5.1A5.2,5.2,0,0,1,159.3,23.4Z"
                fill="#fff" />
            <path
                d="M166.4,25.1a5.4,5.4,0,0,1,4.4-1.7c2.1,0,3.6.6,4.4,1.7a7.8,7.8,0,0,1,1.4,5,8.5,8.5,0,0,1-1.3,5c-.9,1.2-2.4,1.7-4.5,1.7s-3.5-.5-4.4-1.7a8.5,8.5,0,0,1-1.3-5A8.5,8.5,0,0,1,166.4,25.1Zm2.1,8.3a2.5,2.5,0,0,0,2.3,1.1c1.2,0,2-.4,2.3-1.1a6.6,6.6,0,0,0,.6-3.3,6.4,6.4,0,0,0-.6-3.3,2.4,2.4,0,0,0-2.3-1,2.3,2.3,0,0,0-2.2,1,6.2,6.2,0,0,0-.7,3.3A6.6,6.6,0,0,0,168.5,33.4Z"
                fill="#fff" />
            <path
                d="M182.1,36.5h-2.8V23.7h2.8v.8a7.1,7.1,0,0,1,3.5-1.1c1.7,0,2.9.5,3.5,1.5s1,2.5,1,4.8v6.8h-2.8V29.7a6.9,6.9,0,0,0-.5-2.9,1.8,1.8,0,0,0-1.8-.9,7,7,0,0,0-2.5.5l-.4.2Z"
                fill="#fff" />
            <path
                d="M205.2,36.8c-2.6,0-4.3-.7-5.2-2.1s-1.4-3.8-1.4-7,.5-5.6,1.4-6.9,2.6-2.1,5.2-2.1a23.4,23.4,0,0,1,5,.6v2.3a35.7,35.7,0,0,0-4.6-.4,3.3,3.3,0,0,0-3.1,1.4c-.6.9-.9,2.6-.9,5.2a11.6,11.6,0,0,0,.8,5.1,3.4,3.4,0,0,0,3.1,1.4,24.9,24.9,0,0,0,4.7-.4v2.4A30.2,30.2,0,0,1,205.2,36.8Z"
                fill="#fff" />
            <path d="M213.2,36.5V19h2.9V36.5Z" fill="#fff" />
            <path d="M220.1,36.5V19h11.1v2.5H223v4.9h6.7v2.5H223V34h8.2v2.5Z" fill="#fff" />
        </g>
    </g>
</svg>