<svg id="Livello_1" data-name="Livello 1" xmlns="http://www.w3.org/2000/svg" viewBox="0 0 384 512.1"><title>file-xml-s</title><path d="M369.9,97.9,286,14A48,48,0,0,0,252.1-.1H48A48.16,48.16,0,0,0,0,48V464a48,48,0,0,0,48,48H336a48,48,0,0,0,48-48V131.9A48.23,48.23,0,0,0,369.9,97.9ZM332.1,128H256V51.9ZM48,464V48H208V152a23.94,23.94,0,0,0,24,24H336V464Zm64.06-82.25L92.73,414.58c-.92,1.46-2.78,2.12-4.89,2.12-5.7,0-13.77-4.5-13.77-10.19a7.11,7.11,0,0,1,1.19-3.71l22.9-35.34-22-35.21a7.49,7.49,0,0,1-1.33-4.11c0-5.56,7.55-9.79,13.37-9.79a6.44,6.44,0,0,1,6.22,3.44L112,352.5l17.65-30.71a6.45,6.45,0,0,1,6.22-3.44c5.83,0,13.37,4.23,13.37,9.79a7.47,7.47,0,0,1-1.32,4.11l-22,35.21,22.9,35.34a7.2,7.2,0,0,1,1.19,3.71c0,5.69-8.08,10.19-13.77,10.19-2.12,0-4.1-.66-4.9-2.12Zm92.79-.13a7.6,7.6,0,0,1-6.89,3.84,6.78,6.78,0,0,1-6.48-3.84l-12.58-23v51c0,4.24-5.16,6.35-10.32,6.35s-10.33-2.11-10.33-6.35V329.47c0-7.55,5.17-10.33,10.33-10.33,7.41,0,10.59.8,16,10.33l13.63,23.82,13.63-23.82c5.43-9.53,8.61-10.33,16-10.33,5.3,0,10.33,2.78,10.33,10.33v80.08c0,4.24-5.17,6.35-10.33,6.35s-10.32-2.11-10.32-6.35V359.91ZM261.5,415.9c-4.5,0-9-2.11-9-6.35V325.36c0-4.36,5.16-6.22,10.32-6.22s10.33,1.86,10.33,6.22V397.9h30.18c4,0,6,4.5,6,9s-2,9-6,9Z" transform="translate(0 0.1)"/></svg>