<svg xmlns="http://www.w3.org/2000/svg" xmlns:xlink="http://www.w3.org/1999/xlink" width="384" height="513" viewBox="0 0 384 513">
  <defs>
    <clipPath id="clip-file-ods">
      <rect width="384" height="513"/>
    </clipPath>
  </defs>
  <g id="file-ods" clip-path="url(#clip-file-ods)">
    <path id="file-xml-s" d="M369.9,97.9,286,14A48,48,0,0,0,252.1-.1H48A48.16,48.16,0,0,0,0,48V464a48,48,0,0,0,48,48H336a48,48,0,0,0,48-48V131.9a48.23,48.23,0,0,0-14.1-34ZM332.1,128H256V51.9ZM48,464V48H208V152a23.94,23.94,0,0,0,24,24H336V464Z" transform="translate(0 0.1)"/>
    <g id="Raggruppa_1" data-name="Raggruppa 1" transform="translate(13.73)">
      <path id="Tracciato_6" data-name="Tracciato 6" d="M266.59,332c0-16-42-13.24-42-44.21,0-19.86,17.34-27.4,33.89-27.4,7,0,26.34,1.32,26.34,11.65,0,3.57-2.38,10.85-8.21,10.85-4.76,0-7.28-5-18.13-5-9.4,0-13.24,3.84-13.24,7.94,0,13.24,42,10.73,42,44.08,0,19.06-13.9,29.39-33.09,29.39-17.34,0-31.9-8.47-31.9-17.21,0-4.5,4-11.12,9-11.12,6.22,0,10.19,9.8,22.5,9.8C259.84,340.7,266.59,338.31,266.59,332Z" transform="translate(2.55 58)"/>
      <path id="Tracciato_7" data-name="Tracciato 7" d="M329.86,261.14c18.27,0,32.57,8.47,32.57,31.24v34.29c0,22.76-14.3,31.23-32.57,31.23H306.43c-5.42,0-9-2.91-9-6.22V267.36c0-3.31,3.58-6.22,9-6.22Zm-11.78,18V339.9h11.78c7.42,0,11.92-4.23,11.92-13.23V292.38c0-9-4.5-13.24-11.92-13.24Z" transform="translate(-148.45 58)"/>
      <path id="Tracciato_8" data-name="Tracciato 8" d="M276.72,328.378V292.812c0-23.085,14.356-31.672,32.879-31.672s33.011,8.587,33.011,31.672v35.565c0,23.085-14.488,31.672-33.011,31.672S276.72,351.463,276.72,328.378Zm44.954-35.565c0-9.256-4.562-13.423-12.075-13.423s-11.943,4.167-11.943,13.423v35.565c0,9.256,4.43,13.423,11.943,13.423s12.075-4.167,12.075-13.423Z" transform="translate(-210.45 57.25)"/>
    </g>
  </g>
</svg>
