<svg id="Livello_1" data-name="Livello 1" xmlns="http://www.w3.org/2000/svg" viewBox="0 0 384 512.1"><title>file-xsd</title><path d="M369.9,97.9,286,14A48,48,0,0,0,252.1-.1H48A48.16,48.16,0,0,0,0,48V464a48,48,0,0,0,48,48H336a48,48,0,0,0,48-48V131.9A48.23,48.23,0,0,0,369.9,97.9ZM332.1,128H256V51.9ZM48,464V48H208V152a23.94,23.94,0,0,0,24,24H336V464Zm67.15-83.25L95.83,413.58c-.93,1.46-2.78,2.12-4.9,2.12-5.69,0-13.77-4.5-13.77-10.19a7.2,7.2,0,0,1,1.19-3.71l22.9-35.34-22-35.21a7.47,7.47,0,0,1-1.32-4.11c0-5.56,7.54-9.79,13.37-9.79a6.45,6.45,0,0,1,6.22,3.44l17.6,30.71,17.61-30.71a6.44,6.44,0,0,1,6.22-3.44c5.82,0,13.37,4.23,13.37,9.79a7.49,7.49,0,0,1-1.33,4.11l-22,35.21,23,35.34a7.2,7.2,0,0,1,1.19,3.71c0,5.69-8.07,10.19-13.76,10.19-2.12,0-4.11-.66-4.9-2.12Zm93,8.25c0-16-42-13.24-42-44.21,0-19.86,17.34-27.4,33.89-27.4,7,0,26.34,1.32,26.34,11.65,0,3.57-2.38,10.85-8.21,10.85-4.76,0-7.28-5-18.13-5-9.4,0-13.24,3.84-13.24,7.94,0,13.24,42,10.73,42,44.08,0,19.06-13.9,29.39-33.09,29.39-17.34,0-31.9-8.47-31.9-17.21,0-4.5,4-11.12,9-11.12,6.22,0,10.19,9.8,22.5,9.8C201.43,397.7,208.18,395.31,208.18,389Zm66.35-70.53c18.27,0,32.57,8.47,32.57,31.24V384c0,22.76-14.3,31.23-32.57,31.23H251.1c-5.42,0-9-2.91-9-6.22V324.68c0-3.31,3.58-6.22,9-6.22Zm-11.78,18v60.76h11.78c7.42,0,11.92-4.23,11.92-13.23V349.71c0-9-4.5-13.24-11.92-13.24Z" transform="translate(0 0.1)"/></svg>