<svg xmlns="http://www.w3.org/2000/svg" width="385" height="513" viewBox="0 0 385 513"><defs><clipPath id="a"><path d="M0 0h385v513H0z"/></clipPath></defs><g clip-path="url(#a)"><path d="M369.9 98 286 14.1A48 48 0 0 0 252.1 0H48A48.16 48.16 0 0 0 0 48.1v416a48 48 0 0 0 48 48h288a48 48 0 0 0 48-48V132a48.23 48.23 0 0 0-14.1-34Zm-37.8 30.1H256V52ZM48 464.1v-416h160v104a23.94 23.94 0 0 0 24 24h104v288Z"/><g data-name="Raggruppa 1"><path data-name="Tracciato 10" d="M114.943 336.804c-7.632 0-12.04 4.286-12.04 13.384v35.463c0 9.1 4.408 13.384 12.131 13.384 10.706 0 11.373-8.168 11.777-13.384.4-4.953 4.953-6.288 10.3-6.288 7.228 0 10.574 1.87 10.574 9.9 0 17.8-14.456 27.972-33.582 27.972-17.539 0-32.117-8.562-32.117-31.581v-35.465c0-23.018 14.577-31.581 32.117-31.581 19.126 0 33.582 9.634 33.582 26.627 0 8.037-3.346 9.907-10.433 9.907-5.621 0-10.17-1.476-10.443-6.288-.12-3.477-.494-12.05-11.866-12.05Z"/><path data-name="Tracciato 11" d="M198.464 390.241c0-16.175-42.458-13.384-42.458-44.692 0-20.077 17.529-27.7 34.25-27.7 7.076 0 26.627 1.334 26.627 11.777 0 3.609-2.406 10.968-8.289 10.968-4.822 0-7.359-5.055-18.338-5.055-9.5 0-13.384 3.882-13.384 8.027 0 13.384 42.458 10.847 42.458 44.561 0 19.268-14.052 29.711-33.461 29.711-17.529 0-32.248-8.562-32.248-17.4 0-4.549 4.044-11.241 9.1-11.241 6.3 0 10.311 9.907 22.756 9.907 6.143-.068 12.987-2.484 12.987-8.863Z"/><path data-name="Tracciato 12" d="M225.536 329.253a6.5 6.5 0 0 1-.273-1.476c0-4.943 7.632-8.562 13.384-8.562 3.346 0 6.065 1.072 6.824 3.882l18.732 68.651 18.6-68.631c.8-2.81 3.478-3.882 6.824-3.882 5.752 0 13.384 3.619 13.384 8.562a6.5 6.5 0 0 1-.273 1.476l-24.929 81.611c-1.466 4.681-7.491 6.955-13.647 6.955s-12.131-2.275-13.647-6.955Z"/></g></g></svg>
