<svg xmlns="http://www.w3.org/2000/svg" xmlns:xlink="http://www.w3.org/1999/xlink" width="385" height="513" viewBox="0 0 385 513">
  <defs>
    <clipPath id="clip-csv-file-icon-2">
      <rect width="385" height="513"/>
    </clipPath>
  </defs>
  <g id="csv-file-icon-2" clip-path="url(#clip-csv-file-icon-2)">
    <path id="file-xsd" d="M369.9,97.9,286,14A48,48,0,0,0,252.1-.1H48A48.16,48.16,0,0,0,0,48V464a48,48,0,0,0,48,48H336a48,48,0,0,0,48-48V131.9a48.23,48.23,0,0,0-14.1-34ZM332.1,128H256V51.9ZM48,464V48H208V152a23.94,23.94,0,0,0,24,24H336V464Z" transform="translate(0 0.1)"/>
    <g id="Raggruppa_1" data-name="Raggruppa 1" transform="translate(-1.193 -0.54)">
      <path id="Tracciato_10" data-name="Tracciato 10" d="M208.736,279.336c-7.632,0-12.04,4.286-12.04,13.384v35.463c0,9.1,4.408,13.384,12.131,13.384,10.706,0,11.373-8.168,11.777-13.384.4-4.953,4.953-6.288,10.3-6.288,7.228,0,10.574,1.87,10.574,9.9,0,17.8-14.456,27.972-33.582,27.972-17.539,0-32.117-8.562-32.117-31.581V292.721c0-23.018,14.577-31.581,32.117-31.581,19.126,0,33.582,9.634,33.582,26.627,0,8.037-3.346,9.907-10.433,9.907-5.621,0-10.17-1.476-10.443-6.288C220.482,287.909,220.108,279.336,208.736,279.336Z" transform="translate(-92.6 58.008)"/>
      <path id="Tracciato_11" data-name="Tracciato 11" d="M291.484,332.781c0-16.175-42.458-13.384-42.458-44.692,0-20.077,17.529-27.7,34.25-27.7,7.076,0,26.627,1.334,26.627,11.777,0,3.609-2.406,10.968-8.289,10.968-4.822,0-7.359-5.055-18.338-5.055-9.5,0-13.384,3.882-13.384,8.027,0,13.384,42.458,10.847,42.458,44.561,0,19.268-14.052,29.711-33.461,29.711-17.529,0-32.248-8.562-32.248-17.4,0-4.549,4.044-11.241,9.1-11.241,6.3,0,10.311,9.907,22.756,9.907C284.64,341.576,291.484,339.16,291.484,332.781Z" transform="translate(-91.827 58)"/>
      <path id="Tracciato_12" data-name="Tracciato 12" d="M207.293,271.178a6.5,6.5,0,0,1-.273-1.476c0-4.943,7.632-8.562,13.384-8.562,3.346,0,6.065,1.072,6.824,3.882l18.732,68.651,18.6-68.631c.8-2.81,3.478-3.882,6.824-3.882,5.752,0,13.384,3.619,13.384,8.562a6.5,6.5,0,0,1-.273,1.476l-24.929,81.611c-1.466,4.681-7.491,6.955-13.647,6.955s-12.131-2.275-13.647-6.955Z" transform="translate(19.436 58.615)"/>
    </g>
  </g>
</svg>
