<svg xmlns="http://www.w3.org/2000/svg" width="28" height="32" viewBox="0 0 28 32"><g fill="none" fill-rule="evenodd" transform="translate(0 1)"><path stroke="#000" d="M11,0 L7,0 L0,0 L0,30 L19,30 C20.654,30 22,28.654 22,27 L22,3 C22,1.346 20.654,0 19,0 L11,0 Z" transform="translate(3)"/><line x1="13" x2="21" y1="17" y2="17" stroke="#000" stroke-linecap="square"/><g transform="translate(0 22)"><rect width="27" height="8" x=".5" y=".5" fill="#FFF" stroke="#000"/><text fill="#000" font-family="Arial-Black, Arial Black" font-size="6" font-weight="700">
                    <tspan x="7.552" y="7">LOG</tspan>
                </text></g><line x1="13" x2="21" y1="7" y2="7" stroke="#000" stroke-linecap="square"/><line x1="13" x2="21" y1="12" y2="12" stroke="#000" stroke-linecap="square"/><polygon fill="#000" points="9 8 7.824 8.618 8.049 7.309 7.098 6.382 8.412 6.191 9 5 9.588 6.191 10.902 6.382 9.951 7.309 10.176 8.618"/><polygon fill="#000" points="9 13 7.824 13.618 8.049 12.309 7.098 11.382 8.412 11.191 9 10 9.588 11.191 10.902 11.382 9.951 12.309 10.176 13.618"/><polygon fill="#000" points="9 18 7.824 18.618 8.049 17.309 7.098 16.382 8.412 16.191 9 15 9.588 16.191 10.902 16.382 9.951 17.309 10.176 18.618"/></g></svg>