<svg xmlns="http://www.w3.org/2000/svg" width="36" height="36" viewBox="0 0 36 36"><g fill-rule="evenodd"><polygon fill-rule="nonzero" points="10 0 8 0 0 0 0 4 2 4 2 2 8 2 8 24 6 24 6 26 8 26 10 26 12 26 12 24 10 24 10 2 16 2 16 4 18 4 18 0" transform="translate(10 5)"/><polygon fill-rule="nonzero" points="5.556 0 4.444 0 0 0 0 2.308 1.111 2.308 1.111 1.154 4.444 1.154 4.444 13.846 3.333 13.846 3.333 15 4.444 15 5.556 15 6.667 15 6.667 13.846 5.556 13.846 5.556 1.154 8.889 1.154 8.889 2.308 10 2.308 10 0" transform="translate(0 16)"/><polygon points="5 4 10 8 0 8" transform="translate(0 5)"/></g></svg>
