<?xml version="1.0" encoding="UTF-8"?>
<svg width="281px" height="194px" viewBox="0 0 281 194" version="1.1" xmlns="http://www.w3.org/2000/svg" xmlns:xlink="http://www.w3.org/1999/xlink">
    <!-- Generator: Sketch 48.2 (47327) - http://www.bohemiancoding.com/sketch -->
    <title>Group</title>
    <desc>Created with Sketch.</desc>
    <defs></defs>
    <g id="Page-1" stroke="none" stroke-width="1" fill="none" fill-rule="evenodd">
        <g id="Group" fill="#FFFFFF">
            <path d="M158.0625,140.928571 L158.0625,158.491071 L70.25,158.491071 L70.25,140.928571 L158.0625,140.928571 Z M245.875,140.928571 L245.875,158.491071 L175.625,158.491071 L175.625,140.928571 L245.875,140.928571 Z M245.875,105.803571 L245.875,123.366071 L175.625,123.366071 L175.625,105.803571 L245.875,105.803571 Z M245.875,70.6785714 L245.875,88.2410714 L175.625,88.2410714 L175.625,70.6785714 L245.875,70.6785714 Z M245.875,35.5535714 L245.875,53.1160714 L175.625,53.1160714 L175.625,35.5535714 L245.875,35.5535714 Z M35.125,167.272321 L35.125,35.5535714 L17.5625,35.5535714 L17.5625,167.272321 C17.5625,169.650589 18.4314692,171.708673 20.1694336,173.446638 C21.907398,175.184602 23.9654829,176.053571 26.34375,176.053571 C28.7220171,176.053571 30.780102,175.184602 32.5180664,173.446638 C34.2560308,171.708673 35.125,169.650589 35.125,167.272321 Z M263.4375,167.272321 L263.4375,17.9910714 L52.6875,17.9910714 L52.6875,167.272321 C52.6875,170.290891 52.1844126,173.217945 51.1782227,176.053571 L254.65625,176.053571 C257.034517,176.053571 259.092602,175.184602 260.830566,173.446638 C262.568531,171.708673 263.4375,169.650589 263.4375,167.272321 Z M281,0.428571429 L281,167.272321 C281,174.590066 278.438828,180.810056 273.316406,185.932478 C268.193985,191.054899 261.973995,193.616071 254.65625,193.616071 L26.34375,193.616071 C19.0260051,193.616071 12.8060152,191.054899 7.68359375,185.932478 C2.5611723,180.810056 0,174.590066 0,167.272321 L0,17.9910714 L35.125,17.9910714 L35.125,0.428571429 L281,0.428571429 Z" id=""></path>
            <path d="M157,72.7463797 L157,73.5587417 C157,83.9841066 155.358368,91.6168485 152.075055,96.4571965 C148.791742,101.297544 143.900695,103.717682 137.401766,103.717682 C132.595267,103.717682 128.668889,102.499151 125.622517,100.062053 C124.945545,99.5204756 124.370127,98.843514 123.896247,98.0311479 C118.480473,101.82219 113.470958,103.717682 108.86755,103.717682 C102.504015,103.717682 97.7483601,101.737569 94.6004415,97.7772848 C91.4525229,93.8170001 89.8785872,87.419713 89.8785872,78.5852318 C89.8785872,69.7507505 91.3509787,63.2688433 94.2958057,59.1393157 C97.2406328,55.009788 102.233225,52.9450552 109.273731,52.9450552 C111.643132,52.9450552 114.215586,53.5543206 116.99117,54.7728698 L118.514349,55.4836865 L118.514349,54.1635982 L132.121413,54.1635982 L132.121413,72.3401987 C132.121413,81.6824087 132.307577,87.0304053 132.679912,88.3843488 C133.052246,89.7382923 133.458423,90.6860385 133.898455,91.2276159 C134.338486,91.7691933 134.795435,92.09075 135.269316,92.1922958 C135.743196,92.2938416 136.386309,92.3446137 137.198675,92.3446137 C139.364985,92.3446137 140.938921,91.0245386 141.92053,88.3843488 C142.902139,85.744159 143.392936,80.8023394 143.392936,73.5587417 L143.392936,72.6448344 C143.392936,61.8132865 140.905102,53.9436081 135.92936,49.0355629 C130.953618,44.1275178 123.033167,41.673532 112.16777,41.673532 C101.302374,41.673532 92.9926704,44.7875553 87.2384106,51.0156954 C81.4841508,57.2438354 78.607064,66.2981967 78.607064,78.1790508 C78.607064,90.0599049 81.1795181,98.8265575 86.3245033,104.479272 C91.4694886,110.131986 100.100749,112.9583 112.218543,112.9583 L126.739514,112.044393 L127.247241,123.925188 C121.154495,124.602159 116.144979,124.94064 112.218543,124.94064 C104.433368,124.94064 97.7314483,124.162134 92.1125828,122.605099 C86.4937173,121.048064 81.5857458,118.47561 77.388521,114.88766 C69.1294657,107.644062 65,95.0864249 65,77.2143709 C65,61.5763236 69.2310099,49.7464198 77.6931567,41.7243046 C86.1553035,33.7021895 97.7313467,29.6911921 112.421634,29.6911921 C127.11192,29.6911921 138.21409,33.3637087 145.728477,40.7088521 C153.242863,48.0539955 157,58.7330646 157,72.7463797 Z M109.984547,91.7353422 C112.55704,91.7353422 115.603367,90.8891402 119.12362,89.1967108 C118.717437,86.7596125 118.514349,83.1717161 118.514349,78.4329139 L118.514349,65.9428477 C115.671067,65.2658759 113.606335,64.9273951 112.320088,64.9273951 C108.799835,64.9273951 106.481242,65.9089894 105.364238,67.8722075 C104.247235,69.8354256 103.688742,73.2879297 103.688742,78.2298234 C103.688742,87.2335476 105.787323,91.7353422 109.984547,91.7353422 Z" id="@"></path>
        </g>
    </g>
</svg>
