<?xml version="1.0" encoding="iso-8859-1"?>
<!-- Generator: Adobe Illustrator 18.1.1, SVG Export Plug-In . SVG Version: 6.00 Build 0)  -->
<svg xmlns="http://www.w3.org/2000/svg" xmlns:xlink="http://www.w3.org/1999/xlink" version="1.1" id="Capa_1" x="0px" y="0px" viewBox="0 0 53 53" style="enable-background:new 0 0 53 53;" xml:space="preserve" width="512px" height="512px">
<g>
	<path d="M53,21.941v17c0,0.276-0.224,0.5-0.5,0.5h-52c-0.276,0-0.5-0.224-0.5-0.5v-16.5   c0-0.276,0.224-0.5,0.5-0.5s0.5,0.224,0.5,0.5v16h51v-16H23c-0.276,0-0.5-0.224-0.5-0.5c0-0.276,0.224-0.5,0.5-0.5h29.5   C52.776,21.441,53,21.665,53,21.941z M15.552,31.586l4.597-4.536c0.144-0.141,0.358-0.182,0.544-0.105   C20.879,27.023,21,27.204,21,27.406v4.535c0,0.276-0.224,0.5-0.5,0.5h-4.597c-0.203,0-0.386-0.123-0.462-0.311   C15.363,31.943,15.407,31.727,15.552,31.586z M17.122,31.441H20v-2.839L17.122,31.441z M2.203,18.655   c-0.094-0.094-0.146-0.221-0.146-0.354s0.053-0.26,0.146-0.354l4.243-4.242c0.195-0.195,0.512-0.195,0.707,0l1.414,1.414   c0.094,0.094,0.146,0.221,0.146,0.354s-0.053,0.26-0.146,0.354l-4.243,4.242c-0.098,0.098-0.226,0.146-0.354,0.146   s-0.256-0.049-0.354-0.146L2.203,18.655z M3.263,18.302l0.707,0.707l3.536-3.535l-0.707-0.707L3.263,18.302z M5.03,20.777   l4.243-4.243c0.188-0.188,0.52-0.188,0.707,0l9.192,9.192c0.195,0.195,0.195,0.512,0,0.707l-4.243,4.243   c-0.098,0.098-0.226,0.146-0.354,0.146s-0.256-0.049-0.354-0.146l-9.192-9.192c-0.094-0.094-0.146-0.221-0.146-0.354   S4.937,20.871,5.03,20.777z M6.091,21.131l8.485,8.485l3.536-3.536l-8.485-8.485L6.091,21.131z" fill="#FFFFFF"/>
</g>
<g>
</g>
<g>
</g>
<g>
</g>
<g>
</g>
<g>
</g>
<g>
</g>
<g>
</g>
<g>
</g>
<g>
</g>
<g>
</g>
<g>
</g>
<g>
</g>
<g>
</g>
<g>
</g>
<g>
</g>
</svg>
