<svg xmlns="http://www.w3.org/2000/svg" width="167" height="41"><g fill="none" fill-rule="nonzero"><path fill="#FFF" d="M69.454 8.842V1.138h4.916v1.36h-3.353v2.265h2.741v1.36h-2.741v2.719h-1.563Zm5.882 0V3.177h1.518v5.665h-1.518Zm0-6.39V.912h1.518v1.54h-1.518Zm4.439 6.39h-1.518V3.177h1.506v.318c.514-.302.986-.453 1.416-.453.756 0 1.277.222 1.564.668.287.446.43 1.133.43 2.062v3.07h-1.518V5.817c0-.483-.056-.838-.17-1.065-.113-.234-.34-.351-.68-.351-.31 0-.608.053-.894.159l-.136.045v4.237Zm9.082-3.897V7.3c.015.181.045.31.09.385.046.068.14.117.284.148l-.045 1.144a4.37 4.37 0 0 1-.93-.08 2.084 2.084 0 0 1-.69-.317 3.77 3.77 0 0 1-1.666.397c-1.17 0-1.756-.62-1.756-1.858 0-.604.163-1.031.488-1.28.324-.257.823-.408 1.495-.453l1.212-.091v-.351c0-.234-.053-.393-.159-.476-.105-.09-.275-.136-.51-.136l-2.13.09-.044-1.053a8.799 8.799 0 0 1 2.3-.328c.732 0 1.257.15 1.574.453.325.302.487.785.487 1.45v.001ZM86.308 6.44c-.423.038-.634.264-.634.68 0 .415.185.623.555.623.287 0 .6-.045.94-.136l.17-.045V6.35l-1.03.09h-.001Zm5.514 2.402h-1.518V3.177h1.507v.318c.513-.302.986-.453 1.416-.453.755 0 1.276.222 1.563.668.287.446.43 1.133.43 2.062v3.07h-1.517V5.817c0-.483-.057-.838-.17-1.065-.113-.234-.34-.351-.68-.351-.31 0-.608.053-.895.159l-.136.045v4.237Zm4.506-4.305v-1.36h4.203v1.36l-2.379 2.945h2.379v1.36h-4.203v-1.36l2.38-2.945h-2.38Zm5.382 4.305V3.177h1.518v5.665h-1.518Zm0-6.39V.912h1.518v1.54h-1.518Zm7.26 2.493V7.3c.015.181.045.31.09.385.046.068.14.117.284.148l-.046 1.144c-.385 0-.694-.027-.929-.08a2.088 2.088 0 0 1-.691-.317 3.768 3.768 0 0 1-1.665.397c-1.171 0-1.756-.62-1.756-1.858 0-.604.162-1.031.487-1.28.325-.257.823-.408 1.496-.453l1.212-.091v-.351c0-.234-.053-.393-.159-.476-.106-.09-.275-.136-.51-.136l-2.129.09-.046-1.053a8.8 8.8 0 0 1 2.3-.328c.733 0 1.257.15 1.575.453.324.302.487.785.487 1.45v.001Zm-2.549 1.495c-.423.038-.635.264-.635.68 0 .415.186.623.556.623.287 0 .6-.045.94-.136l.17-.045V6.35l-1.031.09Zm7.134-1.971h-1.393v2.322c0 .227.003.39.011.487.015.091.057.17.124.238.076.068.189.102.34.102l.861-.022.068 1.212c-.506.113-.891.17-1.155.17-.68 0-1.144-.151-1.394-.453-.249-.31-.373-.877-.373-1.7V4.47h-.669V3.177h.669V1.603h1.518v1.574h1.393V4.47v-.001Zm1.294-.646c.401-.52 1.069-.781 2.006-.781.936 0 1.604.26 2.005.781.4.514.6 1.239.6 2.175 0 1.987-.868 2.98-2.605 2.98-1.738 0-2.606-.993-2.606-2.98 0-.936.2-1.661.6-2.175Zm1.167 3.455c.159.272.438.408.839.408.4 0 .675-.136.826-.408.159-.271.238-.698.238-1.28 0-.581-.079-1.004-.238-1.268-.151-.265-.426-.397-.826-.397-.401 0-.68.132-.839.397-.151.264-.226.687-.226 1.268 0 .582.075 1.009.226 1.28Zm-41.884 9.634v7.93h-1.506v-.238c-.53.25-.986.374-1.371.374-.823 0-1.397-.238-1.722-.714-.325-.476-.487-1.227-.487-2.254 0-1.035.192-1.787.578-2.255.392-.476.981-.713 1.767-.713.241 0 .578.037 1.008.113l.215.045v-2.288h1.518Zm-1.676 6.57.158-.034V20.47a6.274 6.274 0 0 0-1.11-.113c-.612 0-.918.543-.918 1.631 0 .59.068 1.008.204 1.258.136.249.36.373.669.373.317 0 .65-.045.997-.136v-.001Zm7.418-2.537V23.3c.015.181.045.31.09.385.046.068.14.117.284.148l-.046 1.144c-.385 0-.694-.027-.928-.08a2.085 2.085 0 0 1-.692-.317 3.77 3.77 0 0 1-1.665.397c-1.17 0-1.756-.62-1.756-1.858 0-.604.163-1.031.487-1.28.325-.257.824-.408 1.496-.453l1.212-.091v-.351c0-.234-.053-.393-.159-.476-.106-.09-.275-.136-.51-.136l-2.13.09-.045-1.053a8.8 8.8 0 0 1 2.3-.328c.733 0 1.258.15 1.575.453.325.302.487.785.487 1.45v.001Zm-2.549 1.495c-.423.038-.634.264-.634.68 0 .415.185.623.555.623.287 0 .6-.045.94-.136l.17-.045v-1.213l-1.031.091Zm4.064 2.402v-7.93h1.518v7.93H81.389Zm3.053 0v-7.93h1.519v7.93h-1.519Zm2.748-4.905.532-2.799h1.598l-.963 2.798H87.19v.001Zm4.746 2.333c0 .899.456 1.348 1.37 1.348.914 0 1.371-.45 1.371-1.348v-5.132h1.563v5.098c0 .944-.245 1.64-.736 2.085-.483.438-1.216.657-2.198.657-.981 0-1.718-.22-2.209-.657-.483-.446-.725-1.14-.725-2.085v-5.098h1.564v5.132Zm7.243 2.572h-1.518v-5.665h1.507v.318c.513-.302.986-.453 1.416-.453.755 0 1.276.222 1.563.668.287.445.431 1.133.431 2.062v3.07h-1.518v-3.025c0-.483-.057-.838-.17-1.065-.113-.234-.34-.351-.68-.351-.31 0-.608.053-.895.159l-.136.045v4.237Zm4.744 0v-5.665h1.518v5.665h-1.518Zm0-6.39v-1.54h1.518v1.54h-1.518Zm3.226 1.371c.401-.52 1.069-.781 2.006-.781.936 0 1.604.26 2.005.781.4.514.6 1.239.6 2.175 0 1.987-.868 2.98-2.605 2.98s-2.606-.993-2.606-2.98c0-.936.2-1.661.6-2.175Zm1.167 3.456c.159.271.438.407.839.407.4 0 .676-.136.827-.407.158-.272.237-.7.237-1.28 0-.582-.079-1.005-.237-1.27-.151-.264-.427-.396-.827-.396-.401 0-.68.132-.839.397-.151.264-.226.687-.226 1.268 0 .582.075 1.009.226 1.28v.001Zm6.075 1.563h-1.518v-5.665h1.507v.318c.513-.302.985-.453 1.416-.453.755 0 1.276.222 1.563.668.287.445.431 1.133.431 2.062v3.07h-1.518v-3.025c0-.483-.057-.838-.17-1.065-.114-.234-.34-.351-.68-.351-.31 0-.608.053-.895.159l-.136.045v4.237Zm5.99-2.187c.007.348.098.6.272.76.181.15.438.226.77.226.702 0 1.329-.023 1.881-.068l.317-.034.022 1.121c-.868.212-1.654.318-2.356.318-.853 0-1.473-.227-1.858-.68-.385-.453-.578-1.19-.578-2.21 0-2.03.835-3.046 2.504-3.046 1.646 0 2.47.853 2.47 2.56l-.114 1.053h-3.33Zm1.948-1.155c0-.453-.071-.767-.215-.94-.143-.182-.396-.272-.759-.272-.355 0-.608.094-.759.283-.143.181-.219.49-.227.929h1.96Zm6.316 1.155c.007.348.098.6.272.76.181.15.438.226.77.226.703 0 1.329-.023 1.881-.068l.317-.034.023 1.121c-.869.212-1.654.318-2.357.318-.853 0-1.473-.227-1.858-.68-.385-.453-.577-1.19-.577-2.21 0-2.03.834-3.046 2.503-3.046 1.647 0 2.47.853 2.47 2.56l-.113 1.053h-3.331Zm1.948-1.155c0-.453-.071-.767-.215-.94-.143-.182-.396-.272-.759-.272-.355 0-.608.094-.759.283-.143.181-.219.49-.226.929h1.959Zm5.923-2.323h1.518v5.665h-1.507v-.317c-.544.302-1.016.453-1.416.453-.786 0-1.314-.216-1.586-.646-.272-.438-.408-1.167-.408-2.186v-2.969h1.518v2.991c0 .56.045.94.136 1.144.091.204.31.306.657.306.332 0 .646-.053.94-.158l.148-.046v-4.237Zm2.919 5.665v-5.665h1.507v.6c.635-.377 1.239-.622 1.813-.735v1.529c-.612.128-1.137.26-1.575.396l-.227.08v3.795h-1.518Zm4.521-5.019c.401-.52 1.069-.781 2.005-.781.937 0 1.605.26 2.006.781.4.514.6 1.239.6 2.175 0 1.987-.868 2.98-2.606 2.98-1.737 0-2.605-.993-2.605-2.98 0-.936.2-1.661.6-2.175Zm1.167 3.456c.159.271.438.407.838.407.401 0 .676-.136.827-.407.159-.272.238-.7.238-1.28 0-.582-.079-1.005-.238-1.27-.151-.264-.426-.396-.827-.396-.4 0-.679.132-.838.397-.151.264-.226.687-.226 1.268 0 .582.075 1.009.226 1.28v.001Zm4.557 3.942v-8.044h1.507v.306c.49-.294.921-.441 1.291-.441.763 0 1.325.23 1.688.69.362.454.544 1.228.544 2.323s-.2 1.858-.601 2.288c-.4.423-1.057.635-1.971.635-.249 0-.517-.023-.804-.068l-.136-.023v2.334h-1.518Zm2.503-6.82a2.3 2.3 0 0 0-.849.17l-.136.057v2.968c.34.045.615.068.827.068.438 0 .736-.129.895-.386.166-.256.249-.694.249-1.314 0-1.042-.329-1.563-.986-1.563Zm4.905 2.254c.008.348.098.6.272.76.181.15.438.226.77.226.703 0 1.33-.023 1.881-.068l.317-.034.023 1.121c-.869.212-1.654.318-2.357.318-.853 0-1.472-.227-1.858-.68-.385-.453-.577-1.19-.577-2.21 0-2.03.834-3.046 2.503-3.046 1.647 0 2.47.853 2.47 2.56l-.113 1.053h-3.331Zm1.949-1.155c0-.453-.072-.767-.216-.94-.143-.182-.396-.272-.759-.272-.355 0-.608.094-.759.283-.143.181-.219.49-.226.929h1.96Zm6.919-.555V23.3c.015.181.045.31.09.385.046.068.14.117.284.148l-.046 1.144a4.36 4.36 0 0 1-.929-.08 2.088 2.088 0 0 1-.691-.317 3.77 3.77 0 0 1-1.665.397c-1.171 0-1.756-.62-1.756-1.858 0-.604.162-1.031.487-1.28.325-.257.823-.408 1.496-.453l1.212-.091v-.351c0-.234-.053-.393-.159-.476-.106-.09-.276-.136-.51-.136l-2.129.09-.046-1.053a8.801 8.801 0 0 1 2.3-.328c.733 0 1.257.15 1.575.453.324.302.487.785.487 1.45v.001Zm-2.549 1.495c-.423.038-.635.264-.635.68 0 .415.185.623.555.623.287 0 .601-.045.941-.136l.17-.045v-1.213l-1.031.091Z"/><path fill="#164194" stroke="#FFF" d="M.5 39.57V.774h58.046v38.798H.5z"/><path fill="#FC0" d="m28.252 8.944 1.25-.926 1.248.926-.478-1.495 1.27-.904H29.98l-.479-1.516-.479 1.516h-1.561l1.27.905-.479 1.494Zm-6.432 1.748 1.229-.926 1.25.926-.459-1.494 1.25-.905h-1.562l-.48-1.516-.478 1.516h-1.54l1.248.905-.457 1.494h-.001Zm-3.477.863-.479 1.515h-1.561l1.27.926-.48 1.473 1.25-.905 1.25.905-.48-1.473 1.27-.926h-1.561l-.479-1.515Zm-1.728 9.512 1.249.905-.48-1.474 1.271-.926h-1.562l-.478-1.494-.48 1.494h-1.56l1.27.926-.48 1.474 1.25-.905Zm2.207 5.029-.479-1.494-.479 1.494h-1.561l1.27.926-.48 1.494 1.25-.926 1.25.926-.48-1.494 1.27-.926h-1.561Zm4.727 4.777-.48-1.494-.478 1.515-1.562-.02 1.27.925-.479 1.494 1.25-.926 1.249.926-.479-1.494 1.27-.926h-1.561Zm6.431 1.747-.479-1.514-.479 1.515h-1.561l1.27.905-.479 1.494 1.25-.926 1.248.926-.478-1.494 1.27-.905H29.98v-.001Zm6.434-1.747-.458-1.494-.479 1.515-1.561-.02 1.25.925-.459 1.494 1.25-.926 1.228.926-.458-1.494 1.249-.926h-1.562Zm4.748-4.777-.479-1.494-.479 1.494h-1.561l1.27.926-.48 1.494 1.25-.926 1.228.926-.458-1.494 1.25-.926h-1.541Zm3.268-6.546h-1.56l-.479-1.493-.479 1.494H40.35l1.27.926-.48 1.494 1.25-.926 1.25.926-.48-1.494 1.27-.926v-.001Zm-4.996-4.102 1.249-.905 1.228.905-.458-1.474 1.25-.925h-1.541l-.479-1.516-.479 1.516h-1.561l1.27.925-.48 1.474h.001Zm-3.477-8.671-.479 1.516h-1.54l1.249.926-.458 1.473 1.228-.926 1.25.926-.48-1.473 1.27-.926h-1.561l-.479-1.516Z"/><path fill="#FFF" d="M68.594 38v-5.727h1.125l2.344 3.825v-3.825h1.074V38h-1.16l-2.309-3.734V38h-1.074Zm8.164-1.32 1.094.183c-.141.401-.364.707-.668.918-.302.209-.681.313-1.137.313-.721 0-1.255-.236-1.602-.707-.273-.378-.41-.854-.41-1.43 0-.688.18-1.225.54-1.613.359-.39.813-.586 1.362-.586.618 0 1.105.204 1.461.613.357.406.528 1.03.512 1.871h-2.75c.008.326.097.58.266.762.17.18.38.27.633.27a.672.672 0 0 0 .433-.141c.117-.094.206-.245.266-.453Zm.062-1.11c-.007-.317-.09-.558-.246-.722a.752.752 0 0 0-.57-.25.762.762 0 0 0-.594.261c-.156.175-.233.412-.23.711h1.64ZM78.281 38l1.496-2.137-1.433-2.011h1.34l.734 1.14.773-1.14h1.29l-1.407 1.964L82.61 38h-1.347l-.844-1.285L79.566 38h-1.285Zm6.883-4.148v.875h-.75v1.671c0 .339.007.537.02.594.015.055.048.1.097.137a.319.319 0 0 0 .188.055c.101 0 .248-.036.441-.106l.094.852a2.17 2.17 0 0 1-.867.164 1.4 1.4 0 0 1-.535-.098.815.815 0 0 1-.352-.258 1.052 1.052 0 0 1-.152-.43c-.024-.127-.035-.385-.035-.773v-1.808h-.504v-.875h.504v-.825l1.101-.64v1.465h.75Zm3.434 2.043v-.965h2.492v2.28c-.242.235-.594.442-1.055.622a3.841 3.841 0 0 1-1.394.266c-.6 0-1.122-.125-1.567-.375a2.41 2.41 0 0 1-1.004-1.078c-.226-.477-.34-1-.336-1.528 0-.596.125-1.126.375-1.59.25-.463.616-.819 1.098-1.066.367-.19.824-.285 1.371-.285.711 0 1.266.15 1.664.449.401.297.659.708.774 1.234l-1.149.215a1.2 1.2 0 0 0-.457-.664c-.221-.164-.498-.246-.832-.246-.505 0-.907.16-1.207.48-.297.32-.445.796-.445 1.426 0 .68.15 1.19.453 1.532.302.338.698.507 1.187.507.243 0 .485-.047.727-.14a2.54 2.54 0 0 0 .629-.348v-.727h-1.324v.001Zm5.957.785 1.093.183c-.14.401-.363.707-.667.918-.303.209-.681.313-1.137.313-.722 0-1.255-.236-1.602-.707-.273-.378-.41-.854-.41-1.43 0-.688.18-1.225.54-1.613.359-.39.813-.586 1.362-.586.618 0 1.105.204 1.461.613.357.406.528 1.03.512 1.871h-2.75c.008.326.096.58.266.762.169.18.38.27.633.27a.672.672 0 0 0 .433-.141c.117-.094.206-.245.266-.453Zm.062-1.11c-.008-.317-.09-.558-.246-.722a.752.752 0 0 0-.57-.25.762.762 0 0 0-.594.261c-.156.175-.233.412-.23.711h1.64ZM100.38 38h-1.098v-2.117c0-.448-.023-.737-.07-.867a.605.605 0 0 0-.23-.309.644.644 0 0 0-.38-.11.88.88 0 0 0-.511.157.798.798 0 0 0-.313.414c-.054.172-.082.49-.082.953V38h-1.097v-4.148h1.02v.609c.361-.469.817-.703 1.366-.703.243 0 .464.044.664.133.201.086.352.196.454.332.104.135.175.289.214.46a3.3 3.3 0 0 1 .063.739V38Zm3.519-1.32 1.094.183c-.14.401-.363.707-.668.918-.302.209-.681.313-1.136.313-.722 0-1.256-.236-1.602-.707-.274-.378-.41-.854-.41-1.43 0-.688.179-1.225.539-1.613.359-.39.814-.586 1.363-.586.617 0 1.104.204 1.461.613.357.406.527 1.03.512 1.871h-2.75c.008.326.096.58.265.762.17.18.381.27.633.27a.672.672 0 0 0 .434-.141c.117-.094.206-.245.265-.453Zm.063-1.11c-.008-.317-.09-.558-.246-.722a.753.753 0 0 0-.57-.25.762.762 0 0 0-.594.261c-.156.175-.233.412-.231.711h1.641ZM107 38h-1.098v-4.148h1.02v.59c.174-.28.331-.463.469-.551a.873.873 0 0 1 .476-.133c.25 0 .491.069.723.207l-.34.957c-.185-.12-.357-.18-.516-.18a.603.603 0 0 0-.39.13c-.107.082-.192.235-.254.456-.06.221-.09.685-.09 1.39V38Zm2.887-2.883-.996-.18c.112-.4.304-.697.578-.89.273-.193.679-.29 1.219-.29.489 0 .854.06 1.093.177.24.114.408.261.504.441.099.177.149.504.149.98l-.012 1.282c0 .364.017.634.051.808.036.172.103.357.199.555h-1.086a3.989 3.989 0 0 1-.106-.324 1.738 1.738 0 0 0-.039-.13 1.976 1.976 0 0 1-.601.411c-.216.092-.45.138-.684.137-.427 0-.764-.116-1.011-.348a1.158 1.158 0 0 1-.368-.879c0-.234.056-.442.168-.625a1.09 1.09 0 0 1 .469-.422c.203-.099.495-.185.875-.258.513-.096.869-.186 1.066-.269v-.11c0-.21-.052-.36-.156-.449-.104-.09-.301-.136-.59-.136-.195 0-.347.039-.457.117-.109.075-.198.21-.265.402Zm1.468.89c-.14.048-.363.104-.667.169-.305.065-.504.129-.598.191a.459.459 0 0 0-.215.387c0 .154.057.286.172.398.114.112.26.168.437.168a.953.953 0 0 0 .567-.195.682.682 0 0 0 .261-.363c.029-.094.043-.272.043-.535v-.22Zm4.067-2.155v.875h-.75v1.671c0 .339.006.537.019.594a.26.26 0 0 0 .098.137.32.32 0 0 0 .188.055c.101 0 .248-.036.441-.106l.094.852c-.255.11-.545.164-.867.164-.198 0-.377-.033-.536-.098a.816.816 0 0 1-.351-.258 1.057 1.057 0 0 1-.153-.43c-.023-.127-.035-.385-.035-.773v-1.808h-.504v-.875h.504v-.825l1.102-.64v1.465h.75Zm.762-.563v-1.016h1.097v1.016h-1.097Zm0 4.711v-4.148h1.097V38h-1.097Zm1.972-2.133c0-.364.09-.717.27-1.058.179-.342.433-.602.762-.782.33-.18.699-.27 1.105-.27.628 0 1.142.205 1.543.614.401.406.602.92.602 1.543 0 .628-.204 1.148-.61 1.563-.404.411-.913.617-1.527.617a2.42 2.42 0 0 1-1.09-.258 1.767 1.767 0 0 1-.785-.754c-.18-.333-.27-.738-.27-1.215Zm1.125.059c0 .411.098.726.293.945.18.212.445.332.723.328a.92.92 0 0 0 .719-.328c.195-.219.293-.536.293-.953 0-.406-.098-.719-.293-.938a.92.92 0 0 0-.719-.328.932.932 0 0 0-.723.328c-.195.22-.293.534-.293.946ZM127.074 38h-1.097v-2.117c0-.448-.024-.737-.071-.867a.604.604 0 0 0-.23-.309.645.645 0 0 0-.379-.11.88.88 0 0 0-.512.157.795.795 0 0 0-.312.414c-.055.172-.082.49-.082.953V38h-1.098v-4.148h1.019v.609c.362-.469.818-.703 1.368-.703.242 0 .463.044.664.133.2.086.351.196.453.332.104.135.176.289.215.46.041.172.062.419.062.739V38Zm1.125 0v-5.727h4.246v.97h-3.09v1.269h2.875v.965h-2.875v1.558h3.2V38h-4.356Zm5.328-5.727h1.157v3.102c0 .492.014.811.043.957a.935.935 0 0 0 .351.566c.188.141.443.211.766.211.328 0 .575-.066.742-.199a.802.802 0 0 0 .301-.496c.034-.195.051-.52.051-.973v-3.168h1.156v3.008c0 .688-.032 1.173-.094 1.457a1.59 1.59 0 0 1-.348.719c-.166.195-.39.352-.672.469-.281.114-.648.172-1.101.172-.547 0-.962-.063-1.246-.188a1.812 1.812 0 0 1-.668-.492 1.593 1.593 0 0 1-.324-.637c-.076-.328-.114-.812-.114-1.453v-3.055Z"/></g></svg>
